<svg xmlns="http://www.w3.org/2000/svg" viewBox="0 0 354.56 96.02"><defs><style>.cls-1{fill:#fff;}</style></defs><g id="Layer_2" data-name="Layer 2"><g id="Layer_1-2" data-name="Layer 1"><path class="cls-1" d="M83.4.68H99.93V94.23H83.4Z"/><path class="cls-1" d="M180.28,30.16V94.23H163.75V86.67C159.13,92.44,152.21,96,142.86,96c-17.05,0-31.14-14.73-31.14-33.83s14.09-33.83,31.14-33.83c9.35,0,16.27,3.59,20.89,9.36V30.16Zm-16.53,32c0-10.76-7.56-18.06-17.82-18.06s-17.68,7.3-17.68,18.06,7.56,18.08,17.68,18.08S163.75,73,163.75,62.19Z"/><path class="cls-1" d="M255.11,54.89V94.23H238.58V56.94c0-8.71-5.25-13.2-12.68-13.2-8.08,0-14.1,4.74-14.1,15.89v34.6H195.27V30.16H211.8v7.17c3.85-5.76,10.51-9,19.1-9C244.48,28.36,255.11,37.84,255.11,54.89Z"/><path class="cls-1" d="M291.38,46.05V72.71c0,6.91,5,7,14.48,6.53v15c-23.19,2.56-31-4.23-31-21.52V46.05H263.7V30.16h11.15V17.22l16.53-5V30.16h14.48V46.05Z"/><path class="cls-1" d="M354.56,28.87V47.33c-8.59-1-19.48,2.82-19.48,16.28V94.23H318.55V30.16h16.53v11C338.41,32.46,346.49,28.87,354.56,28.87Z"/><path class="cls-1" d="M33.35,0A33.39,33.39,0,0,0,0,33.35v62H17.11V66.23L39,65.54A33.2,33.2,0,0,0,71.29,32.21V0ZM17.11,49.12V33.35A16.26,16.26,0,0,1,33.35,17.09H54.2V32.21A16.15,16.15,0,0,1,38.48,48.45Z"/></g></g></svg>