<svg xmlns="http://www.w3.org/2000/svg" xmlns:xlink="http://www.w3.org/1999/xlink" viewBox="0 0 218.38 244.13"><defs><style>.cls-1{fill:#fff;}.cls-2{clip-path:url(#clip-path);}.cls-3{fill:#16c198;}</style><clipPath id="clip-path"><path class="cls-1" d="M218.38,109.2a109.19,109.19,0,0,1-138,105.3A107.34,107.34,0,0,1,58.58,206a109.2,109.2,0,1,1,159.8-96.76Z"/></clipPath></defs><g id="Layer_2" data-name="Layer 2"><g id="Layer_1-2" data-name="Layer 1"><path class="cls-1" d="M218.38,109.2a109.19,109.19,0,0,1-138,105.3A107.34,107.34,0,0,1,58.58,206a109.2,109.2,0,1,1,159.8-96.76Z"/><g class="cls-2"><path class="cls-3" d="M105.8,63a47.27,47.27,0,0,0-47.22,47.22V235.6a106.73,106.73,0,0,0,21.76,8.53V156.78l33.72-1.06a47,47,0,0,0,45.71-47.2V63ZM138,108.52A25.37,25.37,0,0,1,113.38,134l-33,1V110.18A25.5,25.5,0,0,1,105.8,84.7H138Z"/></g></g></g></svg>